HIERARCHY
ROOT Hips
{
	OFFSET 0.00000 0.00000 0.00000
	CHANNELS 6 Xposition Yposition Zposition Zrotation Yrotation Xrotation 
	JOINT LHipJoint
	{
		OFFSET 0 0 0
		CHANNELS 3 Zrotation Yrotation Xrotation
		JOINT LeftUpLeg
		{
			OFFSET 1.75344 -1.53157 0.77399
			CHANNELS 3 Zrotation Yrotation Xrotation
			JOINT LeftLeg
			{
				OFFSET 2.25415 -6.19323 0.00000
				CHANNELS 3 Zrotation Yrotation Xrotation
				JOINT LeftFoot
				{
					OFFSET 2.30342 -6.32861 0.00000
					CHANNELS 3 Zrotation Yrotation Xrotation
					JOINT LeftToeBase
					{
						OFFSET 0.10958 -0.30108 1.49206
						CHANNELS 3 Zrotation Yrotation Xrotation
						End Site
						{
							OFFSET 0.00000 -0.00000 0.77783
						}
					}
				}
			}
		}
	}
	JOINT RHipJoint
	{
		OFFSET 0 0 0
		CHANNELS 3 Zrotation Yrotation Xrotation
		JOINT RightUpLeg
		{
			OFFSET -1.81912 -1.53156 0.77399
			CHANNELS 3 Zrotation Yrotation Xrotation
			JOINT RightLeg
			{
				OFFSET -2.22882 -6.12365 0.00000
				CHANNELS 3 Zrotation Yrotation Xrotation
				JOINT RightFoot
				{
					OFFSET -2.21943 -6.09785 0.00000
					CHANNELS 3 Zrotation Yrotation Xrotation
					JOINT RightToeBase
					{
						OFFSET -0.18931 -0.52012 1.59379
						CHANNELS 3 Zrotation Yrotation Xrotation
						End Site
						{
							OFFSET -0.00000 -0.00000 0.84686
						}
					}
				}
			}
		}
	}
	JOINT LowerBack
	{
		OFFSET 0 0 0
		CHANNELS 3 Zrotation Yrotation Xrotation
		JOINT Spine
		{
			OFFSET -0.00200 1.66634 -0.14248
			CHANNELS 3 Zrotation Yrotation Xrotation
			JOINT Spine1
			{
				OFFSET -0.00875 1.64542 0.09514
				CHANNELS 3 Zrotation Yrotation Xrotation
				JOINT Neck
				{
					OFFSET 0 0 0
					CHANNELS 3 Zrotation Yrotation Xrotation
					JOINT Neck1
					{
						OFFSET 0.02257 1.59605 0.00839
						CHANNELS 3 Zrotation Yrotation Xrotation
						JOINT Head
						{
							OFFSET -0.10214 1.57530 -0.23335
							CHANNELS 3 Zrotation Yrotation Xrotation
							End Site
							{
								OFFSET -0.03588 1.60717 -0.08062
							}
						}
					}
				}
				JOINT LeftShoulder
				{
					OFFSET 0 0 0
					CHANNELS 3 Zrotation Yrotation Xrotation
					JOINT LeftArm
					{
						OFFSET 2.54983 1.10186 0.40078
						CHANNELS 3 Zrotation Yrotation Xrotation
						JOINT LeftForeArm
						{
							OFFSET 4.28840 -0.00000 0.00000
							CHANNELS 3 Zrotation Yrotation Xrotation
							JOINT LeftHand
							{
								OFFSET 3.06552 -0.00000 -0.00000
								CHANNELS 3 Zrotation Yrotation Xrotation
								JOINT LeftFingerBase
								{
									OFFSET 0 0 0
									CHANNELS 3 Zrotation Yrotation Xrotation
									JOINT LeftHandIndex1
									{
										OFFSET 0.75304 -0.00000 0.00000
										CHANNELS 3 Zrotation Yrotation Xrotation
										End Site
										{
											OFFSET 0.60712 -0.00000 0.00000
										}
									}
								}
								JOINT LThumb
								{
									OFFSET 0 0 0
									CHANNELS 3 Zrotation Yrotation Xrotation
									End Site
									{
										OFFSET 0.61639 -0.00000 0.61639
									}
								}
							}
						}
					}
				}
				JOINT RightShoulder
				{
					OFFSET 0 0 0
					CHANNELS 3 Zrotation Yrotation Xrotation
					JOINT RightArm
					{
						OFFSET -2.60909 1.35448 0.21802
						CHANNELS 3 Zrotation Yrotation Xrotation
						JOINT RightForeArm
						{
							OFFSET -4.52172 -0.00000 -0.00000
							CHANNELS 3 Zrotation Yrotation Xrotation
							JOINT RightHand
							{
								OFFSET -2.89140 -0.00000 0.00000
								CHANNELS 3 Zrotation Yrotation Xrotation
								JOINT RightFingerBase
								{
									OFFSET 0 0 0
									CHANNELS 3 Zrotation Yrotation Xrotation
									JOINT RightHandIndex1
									{
										OFFSET -0.68054 -0.00000 0.00000
										CHANNELS 3 Zrotation Yrotation Xrotation
										End Site
										{
											OFFSET -0.54867 -0.00000 0.00000
										}
									}
								}
								JOINT RThumb
								{
									OFFSET 0 0 0
									CHANNELS 3 Zrotation Yrotation Xrotation
									End Site
									{
										OFFSET -0.55705 -0.00000 0.55705
									}
								}
							}
						}
					}
				}
			}
		}
	}
}
MOTION
Frames: 15
Frame Time: .0083333
8.5919 15.5495 22.2469 0 0 0 0 0 0 -21 0 0 0 0 0 0 0 0 0 0 0 0 0 0 21 0 0 0 0 0 0 0 0 0 0 0 0 0 0 0 0 0 0 0 0 0 0 -16 0 0 21 0 0 11 0 0 0 -8 0 0 0 0 0 0 0 0 0 0 0 0 0 0 0 0 0 0 0 0 8 0 0 0 0 0 0 0 0 0 0 0 0 0 0 0 0 0
8.5919 15.5495 22.2469 -179.0880 4.0024 179.6640 0.0000 0.0000 0.0000 -24.1672 -20.4171 2.9971 1.3345 7.3148 20.6513 1.0399 12.6141 -27.5784 2.7644 -10.3036 -29.9655 0.0000 0.0000 0.0000 26.5170 17.0210 7.0258 -0.4965 -4.5175 12.5372 0.9240 -21.9673 -23.4748 -0.0020 0.2903 -0.7976 -0.1584 0.3838 7.1343 0.1935 0.6058 -4.5830 0.1990 0.3500 -8.8596 -5.9275 -1.9330 -7.3758 7.7358 -2.5534 7.8823 3.1967 -1.0229 3.7292 -0.0000 -0.0000 0.0000 -88.5675 11.4783 17.8245 20.4301 -31.1571 -5.7522 -0.0000 -0.0000 16.2912 -10.1487 -32.2382 5.4545 -7.1250 0.0000 -0.0000 -23.1455 -0.5045 25.5219 -0.0000 -0.0000 0.0000 84.9303 -12.4898 33.7170 -23.1888 34.2946 -7.2444 0.0000 0.0000 28.0243 -12.3472 -55.1563 10.1847 7.1250 -0.0000 -0.0000 75.2920 -76.3348 -61.3080
8.5898 15.5535 22.2576 -179.0630 3.8142 179.7550 0.0000 0.0000 0.0000 -24.0694 -20.4696 2.8160 1.3334 7.3119 20.6427 1.0087 12.5411 -27.2834 2.7980 -10.3607 -30.1529 0.0000 0.0000 0.0000 26.5034 17.0080 6.8940 -0.4954 -4.5125 12.5230 0.9238 -21.9868 -23.5157 -0.0009 0.1928 -0.5298 -0.1775 0.3444 7.5166 0.2122 0.5572 -4.7319 0.2328 0.3303 -9.2480 -6.0505 -1.9356 -7.3839 7.8656 -2.5542 7.9020 3.2573 -1.0195 3.7397 0.0000 -0.0000 0.0000 -88.1039 12.0034 17.5717 20.4172 -31.1418 -5.7456 -0.0000 -0.0000 16.3392 -9.8473 -32.1832 5.2822 -7.1250 0.0000 -0.0000 -22.9941 -0.4557 25.3021 0.0000 -0.0000 0.0000 84.4195 -12.6763 33.8719 -23.5056 34.6371 -7.4237 0.0000 0.0000 27.6173 -11.5404 -55.7172 9.5764 7.1250 -0.0000 -0.0000 77.7039 -76.1045 -63.3768
8.5869 15.5553 22.2654 -179.0110 3.7005 179.8150 0.0000 0.0000 0.0000 -23.9765 -20.5389 2.6984 1.3387 7.3260 20.6848 1.0062 12.3861 -27.1233 2.6964 -10.1865 -29.5828 0.0000 0.0000 0.0000 26.5417 17.0679 6.8680 -0.4917 -4.4959 12.4760 0.9322 -22.0397 -23.5345 -0.0000 0.0278 -0.0763 -0.0861 0.2876 7.5885 0.1913 0.4867 -4.6999 0.1699 0.2882 -9.2541 -6.0200 -1.9013 -7.2645 7.9128 -2.5074 7.5625 3.2686 -1.0003 3.6144 -0.0000 0.0000 0.0000 -87.5010 12.3110 17.4116 20.4467 -31.1767 -5.7608 -0.0000 -0.0000 16.1524 -9.9381 -31.8949 5.2891 -7.1250 0.0000 -0.0000 -23.0563 -0.1852 25.2695 -0.0000 0.0000 0.0000 83.9217 -12.5691 34.2090 -23.7084 34.8543 -7.5392 0.0000 0.0000 27.2093 -10.9875 -55.7565 9.1181 7.1250 -0.0000 -0.0000 77.9325 -75.9050 -63.3755
8.5822 15.5543 22.2677 -179.0290 3.6152 179.7970 0.0000 0.0000 0.0000 -24.0194 -20.5750 2.7120 1.3435 7.3385 20.7222 1.0255 12.2234 -27.1188 2.5948 -10.0082 -29.0034 0.0000 0.0000 0.0000 26.5102 17.0363 6.8924 -0.4892 -4.4848 12.4448 0.9651 -22.1671 -23.4524 -0.0007 0.1766 -0.4852 -0.0436 0.2480 7.6692 0.1554 0.4304 -4.6359 0.1167 0.2547 -9.2308 -5.8721 -1.8805 -7.2307 7.7734 -2.4779 7.3217 3.2019 -0.9933 3.5307 -0.0000 0.0000 0.0000 -86.9300 12.6278 17.2368 20.5107 -31.2528 -5.7940 -0.0000 -0.0000 15.9746 -10.3920 -31.7118 5.5062 -7.1250 0.0000 -0.0000 -23.2998 -0.0109 25.5144 -0.0000 0.0000 0.0000 83.3561 -12.5399 34.5301 -23.9641 35.1263 -7.6859 0.0000 0.0000 27.0587 -10.2404 -55.5222 8.4704 7.1250 -0.0000 -0.0000 77.1225 -75.6023 -62.2509
8.5776 15.5534 22.2670 -179.0580 3.4483 179.7580 0.0000 0.0000 0.0000 -24.0861 -20.6281 2.7502 1.3480 7.3503 20.7575 1.0159 12.2475 -27.0692 2.6723 -10.1447 -29.4464 0.0000 0.0000 0.0000 26.4870 16.9869 6.9467 -0.4879 -4.4790 12.4282 0.9773 -22.2751 -23.5463 -0.0010 0.2009 -0.5518 -0.0100 0.1888 7.7865 0.1320 0.3499 -4.6099 0.0851 0.2114 -9.2711 -5.8569 -1.8544 -7.2713 7.7250 -2.4399 7.3122 3.1862 -0.9765 3.5311 -0.0000 -0.0000 0.0000 -86.4007 13.0341 17.0328 20.5454 -31.2939 -5.8120 -0.0000 -0.0000 15.8481 -10.6737 -32.1147 5.7218 -7.1250 0.0000 -0.0000 -23.4206 -0.3862 25.8351 -0.0000 -0.0000 0.0000 82.7264 -12.6702 34.9747 -24.2507 35.4282 -7.8514 0.0000 0.0000 26.6919 -9.7968 -54.8919 8.0403 7.1250 -0.0000 -0.0000 74.7888 -75.3422 -59.7178
8.5745 15.5518 22.2664 -179.0190 3.3159 179.7560 0.0000 0.0000 0.0000 -24.0487 -20.6903 2.7427 1.3493 7.3538 20.7677 0.9980 12.3043 -26.9877 2.7337 -10.2509 -29.7932 0.0000 0.0000 0.0000 26.5638 17.0832 7.0083 -0.4896 -4.4867 12.4501 0.9710 -22.3523 -23.7668 -0.0003 -0.1046 0.2873 0.0144 0.1387 7.9173 0.1752 0.2902 -4.6447 0.1262 0.1828 -9.3866 -5.9561 -1.8100 -7.1136 7.7241 -2.3726 7.1863 3.2062 -0.9515 3.4634 0.0000 -0.0000 0.0000 -85.9024 13.6238 16.8977 20.6143 -31.3754 -5.8478 -0.0000 -0.0000 15.6670 -10.7365 -32.4605 5.8109 -7.1250 0.0000 -0.0000 -23.4329 -0.7090 25.9896 0.0000 -0.0000 0.0000 81.9358 -12.9547 35.6862 -24.5812 35.7729 -8.0438 0.0000 0.0000 26.0251 -9.9812 -54.2834 8.1318 7.1250 -0.0000 -0.0000 72.4305 -75.2920 -57.4277
8.5701 15.5508 22.2633 -179.0110 3.3390 179.7630 0.0000 0.0000 0.0000 -24.0495 -20.6681 2.7451 1.3459 7.3447 20.7408 1.0028 12.2726 -26.9945 2.6808 -10.1595 -29.4946 0.0000 0.0000 0.0000 26.5737 17.1433 6.9948 -0.4961 -4.5158 12.5325 0.9693 -22.3541 -23.7871 -0.0010 -0.2059 0.5658 0.0259 0.1656 7.9190 0.1862 0.3268 -4.6146 0.1257 0.1995 -9.3548 -5.9686 -1.7849 -6.8786 7.6870 -2.3318 6.8085 3.1986 -0.9434 3.3078 -0.0000 -0.0000 0.0000 -85.2888 14.1205 17.0134 20.7311 -31.5131 -5.9088 -0.0000 -0.0000 15.2090 -10.9923 -32.1949 5.9086 -7.1250 0.0000 -0.0000 -23.5782 -0.4604 26.0765 -0.0000 -0.0000 0.0000 81.1330 -13.1250 36.3331 -24.9308 36.1332 -8.2491 0.0000 0.0000 25.5997 -10.1291 -54.3350 8.2584 7.1250 -0.0000 -0.0000 72.5789 -75.3583 -57.6416
8.5643 15.5523 22.2612 -179.0490 3.5570 179.7740 0.0000 0.0000 0.0000 -24.1152 -20.5744 2.7565 1.3398 7.3287 20.6930 1.0234 12.2670 -27.1428 2.6275 -10.0661 -29.1912 0.0000 0.0000 0.0000 26.4833 17.1800 6.9056 -0.5055 -4.5578 12.6514 0.9407 -22.1692 -23.7077 -0.0000 -0.0206 0.0567 0.0316 0.2995 7.8737 0.1390 0.4986 -4.5296 0.0461 0.2789 -9.2348 -5.8480 -1.8277 -6.7873 7.5847 -2.3854 6.4617 3.1439 -0.9780 3.1898 0.0000 0.0000 0.0000 -84.4934 14.4368 17.3423 20.8179 -31.6151 -5.9542 -0.0000 -0.0000 14.6264 -10.8092 -32.0794 5.7900 -7.1250 0.0000 -0.0000 -23.4918 -0.3528 25.9152 0.0000 0.0000 0.0000 80.4088 -13.1011 36.9059 -25.1624 36.3695 -8.3860 0.0000 0.0000 25.0480 -10.1031 -54.5473 8.2586 7.1250 -0.0000 -0.0000 73.3927 -75.3919 -58.4474
8.5562 15.5524 22.2569 -179.0550 3.9758 179.7780 0.0000 0.0000 0.0000 -24.2072 -20.5497 2.8578 1.3338 7.3130 20.6461 1.0501 12.3959 -27.4549 2.5203 -9.8746 -28.5718 0.0000 0.0000 0.0000 26.4016 17.2582 6.8104 -0.5148 -4.5989 12.7680 0.9040 -21.8991 -23.5435 -0.0006 0.1638 -0.4501 0.0512 0.4885 7.8265 0.1356 0.7497 -4.4422 -0.0067 0.3978 -9.1115 -5.9135 -1.8603 -6.7339 7.6085 -2.4188 6.2280 3.1599 -0.9995 3.1143 0.0000 0.0000 0.0000 -83.7550 14.8075 17.6286 20.9492 -31.7690 -6.0232 -0.0000 -0.0000 14.2376 -9.6975 -32.5415 5.2520 -7.1250 0.0000 -0.0000 -22.8989 -0.7925 25.3176 0.0000 0.0000 0.0000 79.5321 -13.1360 37.7967 -25.4217 36.6319 -8.5403 0.0000 0.0000 23.9686 -10.3401 -54.7552 8.4752 7.1250 -0.0000 -0.0000 74.1232 -75.5196 -59.2835
8.5471 15.5499 22.2454 -179.0330 4.2769 179.7290 0.0000 0.0000 0.0000 -24.3193 -20.5913 3.0633 1.3320 7.3084 20.6324 1.0660 12.6020 -27.7568 2.4200 -9.6910 -27.9819 0.0000 0.0000 0.0000 26.3890 17.2850 6.8352 -0.5212 -4.6268 12.8470 0.8849 -21.7407 -23.4263 -0.0004 0.1356 -0.3727 0.0870 0.6197 7.7256 0.1800 0.9267 -4.3025 -0.0045 0.4809 -8.9000 -6.0731 -1.8567 -6.6685 7.6653 -2.3959 5.9319 3.2044 -0.9952 3.0158 0.0000 0.0000 0.0000 -83.1398 15.1785 17.8655 21.2061 -32.0682 -6.1590 -0.0000 -0.0000 13.7574 -9.0886 -32.8405 4.9581 -7.1250 0.0000 -0.0000 -22.5730 -1.0808 25.0077 0.0000 0.0000 0.0000 78.5272 -13.1699 38.7559 -25.7285 36.9394 -8.7240 0.0000 0.0000 23.1669 -10.5269 -55.2638 8.6825 7.1250 -0.0000 -0.0000 76.0568 -75.6724 -61.3028
8.5423 15.5479 22.2405 -179.0190 4.2467 179.7470 0.0000 0.0000 0.0000 -24.3220 -20.6081 3.0461 1.3365 7.3202 20.6675 1.0576 12.6470 -27.7373 2.4602 -9.7651 -28.2195 0.0000 0.0000 0.0000 26.4014 17.3082 6.8499 -0.5225 -4.6323 12.8628 0.8916 -21.7771 -23.4291 -0.0000 0.0048 -0.0132 0.1205 0.6861 7.6097 0.1705 1.0107 -4.1391 -0.0426 0.5172 -8.6535 -6.0158 -1.9131 -6.7049 7.2855 -2.4280 5.3213 3.4158 -1.0477 3.1488 0.0000 -0.0000 0.0000 -82.3996 15.3888 18.1319 21.4525 -32.3527 -6.2903 -0.0000 -0.0000 13.2690 -9.0197 -32.9462 4.9341 -7.1250 0.0000 -0.0000 -22.5329 -1.1810 24.9956 0.0000 -0.0000 0.0000 77.6180 -13.0475 39.4382 -25.9287 37.1382 -8.8446 0.0000 0.0000 22.9632 -10.3845 -55.5693 8.5952 7.1250 -0.0000 -0.0000 77.2818 -75.6613 -62.4713
8.5394 15.5468 22.2436 -179.0090 4.0239 179.8370 0.0000 0.0000 0.0000 -24.2351 -20.6421 2.8359 1.3456 7.3441 20.7390 1.0483 12.4485 -27.4895 2.4721 -9.7869 -28.2895 0.0000 0.0000 0.0000 26.4016 17.2961 6.7898 -0.5175 -4.6105 12.8010 0.9414 -21.9996 -23.3590 -0.0000 -0.0209 0.0574 0.1971 0.6936 7.6241 0.1048 1.0210 -4.0825 -0.1562 0.5144 -8.5979 -5.8408 -1.9766 -6.7028 7.1628 -2.5123 5.0630 3.3303 -1.0919 3.0583 -0.0000 0.0000 0.0000 -81.5047 15.6247 18.3643 21.5272 -32.4386 -6.3304 -0.0000 -0.0000 13.0459 -8.4022 -33.3107 4.6375 -7.1250 0.0000 -0.0000 -22.2016 -1.5347 24.7027 -0.0000 0.0000 0.0000 76.7421 -12.9986 40.0493 -26.1015 37.3087 -8.9491 0.0000 0.0000 23.0404 -10.1228 -55.3278 8.3533 7.1250 -0.0000 -0.0000 76.3884 -75.5323 -61.4642
8.5353 15.5464 22.2455 -178.9530 3.7851 179.8870 0.0000 0.0000 0.0000 -24.1395 -20.7392 2.7192 1.3544 7.3672 20.8078 1.0548 12.2504 -27.3585 2.4340 -9.7168 -28.0646 0.0000 0.0000 0.0000 26.4617 17.2664 6.7978 -0.5104 -4.5793 12.7125 0.9745 -22.1685 -23.3580 -0.0004 -0.1239 0.3405 0.3036 0.6579 7.8476 0.0780 0.9859 -4.1576 -0.2432 0.4900 -8.8086 -5.7801 -2.0049 -6.5684 7.1446 -2.5576 5.0110 3.3087 -1.1159 3.0161 0.0000 0.0000 0.0000 -80.6170 16.0523 18.3853 21.5404 -32.4538 -6.3375 -0.0000 -0.0000 12.8465 -8.1422 -34.1283 4.5893 -7.1250 0.0000 -0.0000 -22.0389 -2.3080 24.7897 0.0000 0.0000 0.0000 75.8050 -13.2551 40.7585 -26.3976 37.5986 -9.1292 0.0000 0.0000 23.0075 -10.2118 -54.9976 8.3939 7.1250 -0.0000 -0.0000 75.0909 -75.5141 -60.1995
8.5327 15.5485 22.2458 -178.8410 3.5554 179.9300 0.0000 0.0000 0.0000 -23.9956 -20.8513 2.6633 1.3587 7.3782 20.8409 1.0725 12.0661 -27.3241 2.4041 -9.6614 -27.8869 0.0000 0.0000 0.0000 26.5973 17.3103 6.8419 -0.5057 -4.5585 12.6533 0.9628 -22.2387 -23.6212 -0.0027 -0.3354 0.9216 0.4000 0.6180 7.9862 0.1107 0.9475 -4.1858 -0.2590 0.4664 -8.9201 -5.8678 -2.0065 -6.3286 7.2586 -2.5597 4.8163 3.3625 -1.1193 2.9093 -0.0000 -0.0000 0.0000 -79.8034 16.4377 18.2437 21.6331 -32.5599 -6.3873 -0.0000 -0.0000 12.4765 -8.4192 -34.8274 4.8317 -7.1250 0.0000 -0.0000 -22.1559 -2.9575 25.1927 -0.0000 -0.0000 0.0000 74.8438 -13.5488 41.3937 -26.7602 37.9495 -9.3513 0.0000 0.0000 22.9758 -10.4910 -54.8870 8.6136 7.1250 -0.0000 -0.0000 74.5951 -75.5992 -59.8217
